<?xml version="1.0" encoding="UTF-8" standalone="no"?>
<!-- Created with Inkscape (http://www.inkscape.org/) -->

<svg
   xmlns:dc="http://purl.org/dc/elements/1.1/"
   xmlns:cc="http://creativecommons.org/ns#"
   xmlns:rdf="http://www.w3.org/1999/02/22-rdf-syntax-ns#"
   xmlns:svg="http://www.w3.org/2000/svg"
   xmlns="http://www.w3.org/2000/svg"
   xmlns:sodipodi="http://sodipodi.sourceforge.net/DTD/sodipodi-0.dtd"
   xmlns:inkscape="http://www.inkscape.org/namespaces/inkscape"
   width="329.87375"
   height="51"
   id="svg2"
   version="1.1"
   inkscape:version="0.48.2 r9819"
   sodipodi:docname="ThoughtworksBlack.svg">
  <defs
     id="defs4">
    <clipPath
       id="clipPath3020"
       clipPathUnits="userSpaceOnUse">
      <path
         id="path3022"
         d="m 0,0 2638.99,0 0,408 L 0,408 0,0 z"
         inkscape:connector-curvature="0" />
    </clipPath>
  </defs>
  <sodipodi:namedview
     id="base"
     pagecolor="#ffffff"
     bordercolor="#666666"
     borderopacity="1.0"
     inkscape:pageopacity="0.0"
     inkscape:pageshadow="2"
     inkscape:zoom="1.4"
     inkscape:cx="164.93688"
     inkscape:cy="25.499997"
     inkscape:document-units="px"
     inkscape:current-layer="layer1"
     showgrid="false"
     inkscape:window-width="774"
     inkscape:window-height="590"
     inkscape:window-x="0"
     inkscape:window-y="0"
     inkscape:window-maximized="0"
     fit-margin-top="0"
     fit-margin-left="0"
     fit-margin-right="0"
     fit-margin-bottom="0" />
  <metadata
     id="metadata7">
    <rdf:RDF>
      <cc:Work
         rdf:about="">
        <dc:format>image/svg+xml</dc:format>
        <dc:type
           rdf:resource="http://purl.org/dc/dcmitype/StillImage" />
        <dc:title></dc:title>
      </cc:Work>
    </rdf:RDF>
  </metadata>
  <g
     inkscape:label="Layer 1"
     inkscape:groupmode="layer"
     id="layer1"
     transform="translate(-210.06312,-506.86218)">
    <g
       transform="matrix(1.25,0,0,-1.25,210.06312,557.86218)"
       inkscape:label="ink_ext_XXXXXX"
       id="g3012"
       style="fill:#000000;fill-opacity:1"
       inkscape:export-filename="/Users/pkua/Desktop/thoughtworks-black.png"
       inkscape:export-xdpi="352.17999"
       inkscape:export-ydpi="352.17999">
      <g
         transform="scale(0.1,0.1)"
         id="g3014"
         style="fill:#000000;fill-opacity:1">
        <g
           id="g3016"
           style="fill:#000000;fill-opacity:1">
          <g
             clip-path="url(#clipPath3020)"
             id="g3018"
             style="fill:#000000;fill-opacity:1">
            <path
               id="path3024"
               style="fill:#000000;fill-opacity:1;fill-rule:nonzero;stroke:none"
               d="m 2606.13,281.652 c 4.52,-0.109 7.66,0.946 7.66,5.879 0,5.457 -5.78,5.039 -9.65,5.039 l -9.04,0 0,-10.918 11.03,0 z m 14.17,-23 -9.65,0 -8.93,16.914 -6.62,0 0,-16.914 -8.4,0 0,40.118 19.32,0 c 10.51,0 15.55,-2.84 15.55,-12.286 0,-7.351 -3.89,-10.398 -10.92,-10.918 l 9.65,-16.914 z m 8.92,20.274 c 0,16.484 -11.44,28.242 -27.29,28.242 -16.17,0 -27.3,-11.758 -27.3,-28.242 0,-16.699 11.13,-28.348 27.3,-28.348 15.85,0 27.29,11.649 27.29,28.348 z m -64.35,0 c 0,20.371 16.48,36.953 37.06,36.953 20.37,0 37.06,-16.582 37.06,-36.953 0,-20.586 -16.69,-37.18 -37.06,-37.18 -20.58,0 -37.06,16.594 -37.06,37.18"
               inkscape:connector-curvature="0" />
            <path
               id="path3026"
               style="fill:#000000;fill-opacity:1;fill-rule:nonzero;stroke:none"
               d="m 236.984,352.512 -85.484,0 0,-273.3714 -66.0156,0 0,273.3714 -85.4844,0 0,55.859 236.984,0 0,-55.859"
               inkscape:connector-curvature="0" />
            <path
               id="path3028"
               style="fill:#000000;fill-opacity:1;fill-rule:nonzero;stroke:none"
               d="m 324.582,291.574 c 19.891,16.504 44.434,29.629 70.672,29.629 25.816,0 62.207,-15.668 62.207,-74.062 l 0,-168.0004 -62.633,0 0,142.6054 c 0,19.047 1.27,49.094 -25.812,49.094 -18.196,0 -32.586,-13.125 -44.434,-25.82 l 0,-165.8794 -62.629,0 0,329.2304 62.629,0 0,-116.797"
               inkscape:connector-curvature="0" />
            <path
               id="path3030"
               style="fill:#000000;fill-opacity:1;fill-rule:nonzero;stroke:none"
               d="m 627.152,197.629 c 0,29.629 -5.922,77.441 -39.773,77.441 -33.859,0 -39.781,-47.812 -39.781,-77.441 0,-29.621 5.922,-77.441 39.781,-77.441 33.851,0 39.773,47.82 39.773,77.441 z m -143.879,0 c 0,63.055 34.7,123.574 104.106,123.574 69.398,0 104.101,-60.519 104.101,-123.574 C 691.48,135 656.359,74.0625 587.379,74.0625 518.398,74.0625 483.273,135 483.273,197.629"
               inkscape:connector-curvature="0" />
            <path
               id="path3032"
               style="fill:#000000;fill-opacity:1;fill-rule:nonzero;stroke:none"
               d="M 851.859,103.684 C 831.973,87.1797 807.426,74.0625 781.191,74.0625 c -25.816,0 -62.207,15.6563 -62.207,74.0545 l 0,168.008 62.629,0 0,-142.617 c 0,-19.043 -1.269,-49.094 25.813,-49.094 18.199,0 32.59,13.125 44.433,25.82 l 0,165.891 62.633,0 0,-236.9844 -62.633,0 0,24.5434"
               inkscape:connector-curvature="0" />
            <path
               id="path3034"
               style="fill:#000000;fill-opacity:1;fill-rule:nonzero;stroke:none"
               d="m 1040.18,196.777 c 26.24,0 33.86,21.582 33.86,44.016 0,21.582 -10.16,39.785 -33.86,39.785 -26.23,0 -34.28,-22.012 -34.28,-44.445 0,-21.582 10.16,-39.356 34.28,-39.356 z M 997.012,78.7109 c -5.922,-3.8086 -9.731,-7.1875 -9.731,-14.8125 0,-22.0039 44.439,-23.2734 59.249,-23.2734 10.58,0 65.59,1.2695 65.59,20.3125 0,12.2773 -8.46,11.0078 -45.7,13.125 l -69.408,4.6484 z m 19.888,78.2931 c -7.19,0 -17.775,-3.809 -17.775,-14.816 0,-30.887 164.205,22.851 164.205,-69.8247 C 1163.33,37.2383 1139.63,0 1045.68,0 964.004,0 936.074,28.7812 936.074,59.668 c 0,18.2031 11.426,27.5117 25.817,35.9765 -10.157,7.6175 -18.625,16.5035 -18.625,30.0395 0,23.281 12.695,35.546 30.894,47.402 -17.348,16.926 -29.625,38.086 -29.625,65.168 0,52.48 44.434,82.949 95.645,82.949 20.74,0 40.63,-5.93 58.4,-16.504 12.69,11.844 24.12,19.461 42.74,19.461 5.93,0 12.27,-0.418 18.2,-1.687 l 0,-44.016 c -6.35,2.539 -13.12,5.078 -19.89,5.078 -6.77,0 -11,-2.117 -16.93,-5.078 6.77,-12.695 12.28,-26.66 12.7,-40.203 0,-52.473 -44.01,-82.942 -95.22,-82.942 l -23.28,1.692"
               inkscape:connector-curvature="0" />
            <path
               id="path3036"
               style="fill:#000000;fill-opacity:1;fill-rule:nonzero;stroke:none"
               d="m 1249.23,291.574 c 19.9,16.504 44.44,29.629 70.68,29.629 25.81,0 62.2,-15.668 62.2,-74.062 l 0,-168.0004 -62.63,0 0,142.6054 c 0,19.047 1.27,49.094 -25.81,49.094 -18.2,0 -32.59,-13.125 -44.44,-25.82 l 0,-165.8794 -62.63,0 0,329.2304 62.63,0 0,-116.797"
               inkscape:connector-curvature="0" />
            <path
               id="path3038"
               style="fill:#000000;fill-opacity:1;fill-rule:nonzero;stroke:none"
               d="m 1495.95,316.125 48.66,0 0,-52.063 -48.66,0 0,-120.605 c 0,-11.426 3.38,-23.269 23.69,-23.269 10.58,0 17.36,4.226 24.97,8.886 l 0,-47.824 c -13.12,-3.8086 -26.66,-7.1875 -40.2,-7.1875 -38.93,0 -71.09,22.0039 -71.09,73.6325 l 0,116.367 -29.2,0 0,52.063 29.2,0 0,59.238 62.63,0 0,-59.238"
               inkscape:connector-curvature="0" />
            <path
               id="path3040"
               style="fill:#000000;fill-opacity:1;fill-rule:nonzero;stroke:none"
               d="m 1805.29,79.1406 -33.85,0 -55.86,269.1404 -0.85,0 -58.83,-269.1404 -33.85,0 -68.98,329.2304 33.01,0 54.17,-265.754 0.84,0 59.25,265.754 32.58,0 56.29,-265.754 0.84,0 57.98,265.754 32.59,0 -75.33,-329.2304"
               inkscape:connector-curvature="0" />
            <path
               id="path3042"
               style="fill:#000000;fill-opacity:1;fill-rule:nonzero;stroke:none"
               d="m 2020.26,195.938 c 0,39.777 -9.73,95.636 -60.51,95.636 -50.79,0 -60.52,-55.859 -60.52,-95.636 0,-39.786 9.73,-95.645 60.52,-95.645 50.78,0 60.51,55.859 60.51,95.645 z m -154.04,0 c 0,87.597 41.48,123.566 93.53,123.566 52.05,0 93.52,-35.969 93.52,-123.566 0,-87.598 -41.47,-123.5747 -93.52,-123.5747 -52.05,0 -93.53,35.9767 -93.53,123.5747"
               inkscape:connector-curvature="0" />
            <path
               id="path3044"
               style="fill:#000000;fill-opacity:1;fill-rule:nonzero;stroke:none"
               d="m 2112.09,262.375 0.85,0 c 13.11,27.93 30.04,53.75 64.74,53.75 l 12.7,0 0,-30.051 c -43.17,5.93 -65.59,-40.625 -78.29,-74.48 l 0,-132.4534 -33.01,0 0,233.5934 33.01,0 0,-50.359"
               inkscape:connector-curvature="0" />
            <path
               id="path3046"
               style="fill:#000000;fill-opacity:1;fill-rule:nonzero;stroke:none"
               d="m 2250.05,204.395 86.75,108.339 36.82,0 -64.33,-79.98 74.05,-153.6134 -35.54,0 -59.67,126.9534 -38.08,-46.973 0,-79.9804 -33.01,0 0,329.2304 33.01,0 0,-203.976"
               inkscape:connector-curvature="0" />
            <path
               id="path3048"
               style="fill:#000000;fill-opacity:1;fill-rule:nonzero;stroke:none"
               d="m 2526.38,260.684 c -13.11,19.464 -28.78,30.89 -53.32,30.89 -21.58,0 -41.89,-10.996 -41.89,-34.699 0,-57.129 123.14,-32.168 123.14,-110.879 0,-45.703 -32.59,-73.6327 -76.59,-73.6327 -37.67,0 -68.14,16.5039 -87.18,49.0897 l 26.24,16.508 c 12.7,-24.121 33.01,-37.668 60.94,-37.668 24.12,0 45.7,13.117 45.7,39.785 0,58.82 -123.14,30.891 -123.14,114.68 0,40.203 33.01,64.746 71.51,64.746 32.59,0 59.67,-13.535 77.86,-40.625 l -23.27,-18.195"
               inkscape:connector-curvature="0" />
          </g>
        </g>
      </g>
    </g>
  </g>
</svg>
